<svg id="Layer_1" data-name="Layer 1" xmlns="http://www.w3.org/2000/svg" viewBox="0 0 1916 123"><title>Artboard 3</title><path d="M.14.1c-9.94,31,47.69,17.16,67.57,31.44s30.86,39.12,33.56,63.94c1.31,12,9,29.13,18.85,22.65,11.61-5,12.86-43.09,31.39-54.59s40.39-15.49,61.7-19.28c13.36-2.37,27.8-4.6,39.91,1.69,9,4.67,15.35,13.42,23.86,19,26.31,17.19,59.76-1.05,88.52-13.38A226.75,226.75,0,0,1,527,45.45c14.71,5,29.29,11.68,44.79,12.2,36.59,1.23,72.85-31.56,106.51-16.72,15.61,6.89,25.65,22.43,38.48,33.88s33.58,18.35,46,6.4c5-4.83,7.48-11.74,11.06-17.76,21.08-35.34,70.88-31.66,110.77-26.2a916.25,916.25,0,0,0,290.47-6.83c54-10,117-22.49,157.82,15.42,9.17,8.53,18.28,20,30.62,19.48,13.16-.55,21.53-14.41,32.94-21.2,32.77-19.51,70.82,24.06,108.41,19.59,12.15-1.44,23.09-7.87,34.26-13,46.9-21.57,103-20.61,149.2,2.57C1705.73,62,1724.53,74.08,1743,68c12-3.92,20.44-14.67,31.14-21.41,23-14.5,52.23-8.84,79.18-8.43S1912.88,27.83,1918,.54C1875.48-10.36.14.1.14.1Z"/><path d="M1265.37,46.68c-19.38-4.32-41,7.26-48.23,25.77a5.28,5.28,0,0,0-.45,3.41c.4,1.27,1.64,2.06,2.78,2.74,3.59,2.15,7.26,4.34,11.35,5.22,11,2.35,21.34-5,31.6-9.6a67.2,67.2,0,0,1,36.52-5.12,10,10,0,0,0,4.74,0c3.11-1.11,4.12-5.35,2.8-8.37s-4.23-5-7.11-6.64a65.19,65.19,0,0,0-38.65-7.84"/><path d="M645.89,72.67A24,24,0,0,0,663.34,86a6.44,6.44,0,0,0,2.93,0c1.94-.6,3.06-2.73,3.27-4.77.52-5.07-3.18-9.56-6.95-13a21.26,21.26,0,0,0-7.23-4.78c-2.75-.93-6-.75-8.22,1.11s-2.85,5.62-.89,7.78"/></svg>