<?xml version="1.0" encoding="utf-8"?>
<!-- Generator: Adobe Illustrator 23.0.3, SVG Export Plug-In . SVG Version: 6.00 Build 0)  -->
<svg version="1.1" id="Layer_1" xmlns="http://www.w3.org/2000/svg" xmlns:xlink="http://www.w3.org/1999/xlink" x="0px" y="0px"
	 viewBox="0 0 892 317" style="enable-background:new 0 0 892 317;" xml:space="preserve">
<style type="text/css">
	.st0{stroke:#FFFFFF;stroke-miterlimit:10;}
</style>
<title>Artboard 2</title>
<path class="st0" d="M287.2,206.7c-5.9-6.3-11.5-12.1-16.8-18.2c-0.8-0.8-0.4-3.1,0.1-4.5c5.4-16,15.8-29.7,29.8-39.2
	c13.9-9.7,28.5-18.4,42.4-28.1c23.4-16.3,46.5-32.8,69.4-49.6c7-5.2,13.6-7.4,22.5-5.7c7.8,1.5,16,0.9,24.1,0.7
	c8.4-0.2,11.1,2.7,7.2,10.2c-5.1,9.8-10.8,19.3-17.1,28.4c-17.9,25.6-36.3,51-58.3,73.4c-10.4,10.6-21.6,20.1-34.8,27
	c-2,1-3.6,3.8-4.3,6.1c-3.8,12.4-7.3,24.9-10.7,37.4c-1.4,5.3-1.4,5.8-6.3,3.1c-6.4-3.6-12.6-7.5-18.6-11.8c-1.4-1.3-2.2-3.2-2-5.2
	c2.1-9.3,4.5-18.6,7.3-27.7c1-3.3,0.6-5.2-2-7.4c-3.9-3.5-7.6-7.1-11.1-11c-3.9-4.1-4.2-4.3-7.5,0.4c-4,5.7-7.4,11.8-11,17.7
	C288.5,203.8,288.1,205,287.2,206.7z M404.4,101.5c-7-3.8-11.8,0-16.6,4.7c-5.6,5.4-11.6,10.4-17.5,15.5
	c-11.4,10-22.8,19.9-34.3,29.8c-3.5,3.1-3.6,3.5,0.3,6.3c3.7,2.6,7.6,4.9,11.3,7.4c3.9,2.7,9,3.2,13.4,1.5c3.1-1,6.1-2.4,8.9-4.1
	c18-11.5,31.6-27.1,42.5-45.2c1.6-2.9,2.8-5.9,3.5-9.1c0.8-3-0.6-5.1-3.8-5.6C409.5,102.2,407,101.9,404.4,101.5z"/>
<path class="st0" d="M431.6,237.8c-2.6-0.4-5.2-0.6-7.7-1.3c-9.5-2.6-14.7-9.3-15.2-19.5c-0.6-12.7,3.6-24.2,8.8-35.5
	c9.3-20.2,22-38.1,36.5-54.8c21-24.1,44-46,70.6-63.9c10-6.7,20.5-12.7,32.2-16c3.3-1,6.6-1.6,10.1-1.7c6.1-0.1,9.8,3.9,7.7,9.6
	c-3.1,8.5-6.8,16.6-11.3,24.4c-10.8,18.5-22.1,36.8-29.2,57.2c-6,17.1-10.9,34.7-16.4,52c-3.9,12.4-8.6,24.8-20.3,31.8
	c-7.8,4.7-16.7,8-25.5,10.9C458.9,235.2,445.6,238.9,431.6,237.8z M444.3,179.5c-1.9,17,3.4,24.8,13.9,25.6
	c4.1,0.2,8.2-0.2,12.1-1.4c14.5-4.2,23.9-14.4,29.3-27.8c8.5-20.8,16.2-42,24-63.2c2.1-5.6,3.7-11.4,4.8-17.3c1.1-6.4-2-8.8-8.2-6.6
	c-4.1,1.5-8,3.6-11.5,6.1c-21.8,15.5-39.2,35.2-53,58C449.8,162.6,445,172.9,444.3,179.5L444.3,179.5z"/>
<path class="st0" d="M681.3,175.4c12.5,4,24.9,4.2,37.9,5c-0.9,1.8-1.4,3-2.1,4c-5.4,8.4-11,16.7-16.3,25.1c-1.5,2.4-3.3,3.5-6,3.2
	c-10.5-0.9-21-1.6-31.4-2.8c-3.2-0.4-5.2,0-6.4,3.2c-3,7.8-6.2,15.5-9.3,23.2c-1.3,3.1-0.4,4.5,3.1,4.7c14.9,0.7,29.8-0.2,44.5-2.7
	c1.5-0.2,3-0.4,4.5-0.6c0.4,0,0.8,0.2,1.5,0.5c-0.7,1.3-1.4,2.5-2,3.6c-5.9,11.1-12,22.1-17.8,33.3c-1.4,2.8-3.1,4.6-6.1,5.5
	c-11.8,3.5-23.4,7.7-35.4,10.3c-7.5,1.6-15.5,0.8-23.2,0.9c-2.2,0-3.6-0.6-3-3.5c5.1-23.1,10-46.2,15.2-69.3
	c6.2-27.1,21.1-49.2,39.7-69.3c9.5-10.2,18.8-20.6,28.3-30.8c1.1-1.1,3.4-2.1,4.7-1.8c19.6,5.6,40.6,4.5,59.5-3.1
	c0.6-0.2,1.3-0.4,2.7-0.8c-0.7,2-1.1,3.5-1.7,4.9c-3.8,10.4-7.8,20.7-11.5,31.2c-1.2,3.5-3,5.2-6.9,5.6c-14,1.4-27.9,1.5-41.7-1.2
	c-3.5-0.7-5.6,0.2-7.5,3c-3.5,5-7.4,9.8-11,14.8C683,172.7,682.3,173.9,681.3,175.4z"/>
<path class="st0" d="M739.8,231.3c3.4-9.3,6.2-18.9,10.4-27.9c12.2-26.3,24.3-52.6,37.5-78.3c11.2-21.8,26.8-40.2,47.9-53.4
	c7.1-4.5,14.7-7.8,23.2-8.9c11.1-1.3,17.3,5.1,14.6,16c-1.5,6.1-3.5,12.1-6.1,17.8c-13.1,27.6-19,56.8-22.1,87
	c-1,8.4-2.8,16.7-5.6,24.7c-5.2,15.7-15.9,27-30.8,33.9c-14.8,7.1-31,11-47.5,11.4c-0.4,0-0.8,0-1.2,0c-14.4-0.3-20.7-7.6-19-21.8
	L739.8,231.3z M830.9,159.1c0.3-3.1,0.8-6.3,0.8-9.4c0.1-8.9,0.7-17.8,0-26.6c-0.8-9.7-6.6-12.2-14.2-6.1
	c-5.3,4.3-9.9,9.3-13.8,14.9c-8.5,11.8-14.2,25.3-18.7,39c-3.9,11.7-7.5,23.7-9.4,35.9c-2,12.7,6.3,19.5,19.1,17.2
	c14.5-2.7,23.6-11.7,29.2-24.9C829.3,186.4,830.1,172.8,830.9,159.1z"/>
<path class="st0" d="M319.8,17.4c-5.5,2.3-11,4.6-16.5,7c-11.3,4.8-22.6,9.7-34,14.4c-1.9,0.8-3.9,1.1-5.9,1
	c-20.6-1.5-40.7,1.8-60.5,6.7c-6.3,1.6-12.1,6.2-17.6,10c-7.8,5.4-15.3,11.4-22.9,17.2c-1.1,1-2.2,2.1-3.2,3.3l43.6-10.4l0.6,1.2
	c-1.3,1.1-2.5,2.2-3.8,3.2c-12.5,9.8-23.4,21-30.6,35.4c-0.6,1.3-2.3,2.2-3.6,2.9c-9.3,4.5-18.8,8.9-28.1,13.5
	c-1.5,0.7-3.3,2.7-3.3,4.1c0.1,9.3,0.7,18.5,1.2,27.8c0.1,0.6,0.4,1.2,0.7,1.7l38.9-22c0.1,8.4,0,15.3,0.4,22.2
	c0.4,7.1,1.4,14.2,1.8,21.2c0.1,1.5-0.8,3.9-2,4.6c-16.4,9.1-32.9,17.9-49.4,26.8c-0.5,0.1-1,0.2-1.4,0.2
	c-1.5-8.7-3.2-17.2-4.5-25.8c-2.3-14.8-5.2-29.7-6.3-44.6c-2.1-28,9.2-50.7,30-69.2c15.6-13.9,33.7-23.7,51.7-33.9
	c10.7-6.1,21.7-11.7,32.1-18.2c8.2-5.1,17.2-6.1,26.2-7.2c21.6-2.8,43.6-1,64.5,5.1c0.8,0.2,1.5,0.5,2.2,0.8L319.8,17.4z"/>
<path class="st0" d="M33.6,273.3c-2.8-12.9-5.5-24.8-8-36.6C19.5,208.4,14.7,180,13.9,151c-0.6-16.3,1.7-32.5,6.7-48
	c1-3.1,2.8-5.9,5.1-8.1c17.4-17.1,38.1-30.6,60.7-39.7c6-2.4,12.2-4.1,18.5-5.2c7.9-1.4,10.5,2,7,9.2c-4.3,8.9-9.3,17.4-13.6,26.2
	c-9,18.8-12.8,38.8-14,59.5c-0.9,15.4-2,30.8-7.1,45.6c-4,11.7-9.9,22.1-20.2,29.7c-4,2.9-7.7,6.1-11.3,9.5
	c-1.4,1.5-2.1,3.5-1.9,5.6c1.2,7.2,3.1,14.4,4.2,21.6c0.1,2-0.6,4-2,5.5C42.5,266.1,38.4,269.2,33.6,273.3z M37.6,201.4
	c5.5-5,10.3-9.4,15.2-13.7c4.8-4.3,8.3-9.9,9.9-16.2c6.1-21.2,6.1-42.9,5.7-64.6c-0.2-7.8-4.8-9.7-11.3-5.1c-1,0.7-2,1.5-2.9,2.3
	c-5.7,5.2-11.2,10.5-16.9,15.5c-3.4,2.8-5.4,7-5.4,11.4c-1,19,0.8,37.9,3.4,56.7C35.8,191.9,36.7,196.2,37.6,201.4L37.6,201.4z"/>
<path class="st0" d="M592.8,286.2c-2.8-1.1-5.1-1.9-7.4-2.8c-16.2-6.7-30.4-16.7-44.7-26.5c-1.1-0.7-1.8-3-1.7-4.4
	c1.8-17.1,4.2-34.2,5.6-51.3c1.7-19.5,4.1-38.9,11.1-57.4c10-26.4,27.4-47,49.9-63.5c4.8-3.5,9.8-6.8,14.8-10.1c2-1.4,3.8-1.6,5.9,0
	c4,3.1,8.1,5.9,12.7,9.2c-5.7,3.9-11,7.4-16.2,11c-32.8,22-51.5,52.8-56.8,91.8c-1.3,9.6-2.2,19.3-3.4,28.9c-0.4,3.3,0.7,5,3.9,6.1
	c10.8,3.9,21.5,8,32.3,12c2.3,0.8,3.7,1.8,3.2,4.7c-2.7,15.9-5.2,31.8-7.8,47.7C593.8,283.2,593.4,284.7,592.8,286.2z"/>
<path class="st0" d="M211.7,168c1.5-10.1,2.3-19.6,4.4-28.8c5.1-22.8,19.1-39.5,37.6-53c14.9-10.8,31.5-18.4,48.5-25
	c4-1.5,7.9-3.2,11.9-4.9l0.3-1.4l-24.1-10.7c4-1.7,7.6-3.4,11.3-4.9c12-4.9,23.9-9.7,36-14.4c1.9-0.6,3.9-0.6,5.7,0.2
	c14.3,7.2,28.4,14.7,42.6,22c4.7,2.4,9.6,4.5,14.8,6.9c-0.5,0.6-1.1,1.2-1.7,1.7c-13.5,8.1-27,16.1-40.4,24.3
	c-2.5,1.5-4.4,1.5-6.6-0.2c-5.2-3.8-10.4-7.5-15.8-11c-1.4-0.9-3.8-1.6-5.1-1c-18.3,8-36.9,15.4-54.5,24.7
	c-27.8,14.8-43.7,38.3-47.6,69.7c-0.4,3.4-1.5,4.7-5.1,4.6S216.9,167.5,211.7,168z"/>
</svg>
