<svg id="Layer_1" data-name="Layer 1" xmlns="http://www.w3.org/2000/svg" viewBox="0 0 1063 766"><defs><style>.cls-1{fill:#fff;}</style></defs><title>Artboard 2</title><path class="cls-1" d="M318.19,612.73c-5.92-6.33-11.49-12.11-16.76-18.16-.75-.85-.38-3.12.1-4.53a77.38,77.38,0,0,1,29.75-39.19c13.9-9.68,28.48-18.39,42.37-28.08C397,506.5,420.13,490,443,473.13c7.05-5.21,13.64-7.43,22.51-5.74,7.8,1.48,16.05.9,24.09.72,8.43-.18,11.06,2.68,7.16,10.22a251.26,251.26,0,0,1-17.11,28.37c-17.94,25.64-36.28,51-58.28,73.43-10.38,10.58-21.59,20.07-34.82,27-2,1.05-3.65,3.77-4.34,6.06q-5.67,18.6-10.69,37.4c-1.42,5.3-1.39,5.8-6.33,3.08a208.69,208.69,0,0,1-18.63-11.79,6.13,6.13,0,0,1-2-5.16c2.14-9.31,4.5-18.59,7.25-27.73,1-3.28.62-5.18-2-7.41a152.43,152.43,0,0,1-11.07-11c-3.9-4.09-4.23-4.34-7.55.42-4,5.7-7.41,11.77-11.05,17.7C319.55,609.82,319.08,611,318.19,612.73ZM435.42,507.45c-7.05-3.79-11.79,0-16.62,4.65-5.63,5.37-11.61,10.38-17.48,15.5Q384.21,542.54,367,557.44c-3.53,3.07-3.6,3.55.28,6.3,3.67,2.61,7.57,4.88,11.32,7.37A14.42,14.42,0,0,0,392,572.58a43.27,43.27,0,0,0,8.91-4.07c18-11.45,31.63-27.06,42.55-45.16a34.34,34.34,0,0,0,3.51-9.11c.77-2.95-.63-5.06-3.83-5.58C440.55,508.23,438,507.85,435.42,507.45Z"/><path class="cls-1" d="M462.64,643.77c-2.56-.43-5.17-.64-7.66-1.32-9.54-2.62-14.68-9.29-15.21-19.46-.65-12.7,3.59-24.23,8.76-35.47,9.27-20.16,22-38.09,36.48-54.76,21-24.11,44-46,70.64-63.86,10-6.72,20.46-12.72,32.17-16a39.31,39.31,0,0,1,10.06-1.69c6.11-.1,9.76,3.92,7.69,9.57a153.06,153.06,0,0,1-11.33,24.4C583.45,503.71,572.1,522,565,542.36c-6,17.14-10.89,34.66-16.38,52-3.94,12.39-8.61,24.76-20.28,31.8-7.84,4.73-16.71,8-25.47,10.88C489.87,641.22,476.63,644.9,462.64,643.77Zm12.64-58.25c-1.91,17,3.37,24.84,13.86,25.57a35.55,35.55,0,0,0,12.12-1.39c14.5-4.15,23.86-14.39,29.32-27.79,8.5-20.85,16.21-42,24-63.17a95.77,95.77,0,0,0,4.79-17.31c1.08-6.41-2-8.83-8.19-6.59a49.15,49.15,0,0,0-11.53,6.09c-21.84,15.48-39.18,35.19-53,58C480.79,568.63,476,578.93,475.28,585.52Z"/><path class="cls-1" d="M712.31,581.44c12.47,4,24.87,4.23,37.93,5-.92,1.77-1.41,3-2.11,4-5.43,8.37-11,16.67-16.31,25.1-1.5,2.36-3.31,3.47-6.05,3.23-10.47-.9-21-1.58-31.39-2.78-3.24-.37-5.17,0-6.4,3.18-3,7.77-6.16,15.48-9.28,23.21-1.26,3.1-.41,4.46,3.08,4.66a208.72,208.72,0,0,0,44.52-2.72c1.49-.23,3-.43,4.47-.57.36,0,.75.22,1.49.46-.71,1.3-1.36,2.45-2,3.62-5.94,11.07-12,22.1-17.76,33.25-1.42,2.75-3.1,4.63-6.09,5.51-11.79,3.47-23.39,7.74-35.36,10.32-7.46,1.61-15.46.78-23.22.93-2.17,0-3.61-.64-3-3.49,5.12-23.07,10-46.21,15.23-69.26,6.17-27.08,21.12-49.22,39.7-69.25,9.48-10.23,18.75-20.64,28.27-30.82,1.06-1.13,3.39-2.13,4.74-1.76a92.08,92.08,0,0,0,59.51-3.12c.63-.24,1.29-.38,2.69-.8-.68,2-1.14,3.47-1.67,4.91-3.84,10.38-7.83,20.71-11.48,31.15-1.23,3.54-3,5.23-6.88,5.62-14,1.42-27.86,1.46-41.65-1.2-3.52-.68-5.58.22-7.55,3-3.51,5-7.36,9.85-11,14.78C714,578.72,713.31,579.87,712.31,581.44Z"/><path class="cls-1" d="M770.83,637.26c3.41-9.32,6.2-18.93,10.36-27.91,12.16-26.28,24.28-52.61,37.53-78.34,11.22-21.78,26.85-40.17,47.9-53.42,7.14-4.5,14.66-7.83,23.15-8.86,11.08-1.33,17.31,5.15,14.57,15.95a97.17,97.17,0,0,1-6.14,17.79c-13.09,27.57-19,56.84-22.13,87a117,117,0,0,1-5.59,24.7c-5.2,15.71-15.94,27-30.83,33.94a116.54,116.54,0,0,1-47.48,11.42c-.41,0-.82,0-1.23,0q-21.56-.48-19-21.85Zm91.1-72.14c.3-3.13.81-6.25.85-9.38.14-8.86.66-17.76,0-26.56-.77-9.65-6.62-12.2-14.23-6.11A75,75,0,0,0,834.74,538c-8.47,11.85-14.16,25.26-18.7,39-3.88,11.74-7.52,23.74-9.42,35.91-2,12.74,6.34,19.51,19.08,17.18,14.48-2.65,23.61-11.7,29.19-24.86C860.32,592.42,861.1,578.75,861.93,565.12Z"/><path class="cls-1" d="M350.81,423.42c-5.51,2.32-11,4.62-16.53,6.95-11.32,4.81-22.61,9.69-34,14.4a13.57,13.57,0,0,1-5.93,1c-20.58-1.46-40.72,1.78-60.51,6.66-6.33,1.56-12.07,6.17-17.64,10-7.84,5.43-15.29,11.43-22.87,17.23a38,38,0,0,0-3.23,3.29l43.57-10.36.59,1.2c-1.27,1.07-2.51,2.17-3.82,3.2-12.49,9.82-23.35,21-30.57,35.4-.63,1.26-2.27,2.22-3.64,2.89-9.34,4.53-18.78,8.86-28.06,13.5-1.48.73-3.32,2.73-3.3,4.12.12,9.27.69,18.52,1.17,27.78a5.19,5.19,0,0,0,.73,1.69l38.85-22c.11,8.37,0,15.31.36,22.22.38,7.09,1.38,14.15,1.77,21.24.08,1.52-.83,3.9-2,4.56-16.39,9.07-32.9,17.92-49.39,26.8a5.84,5.84,0,0,1-1.44.24c-1.53-8.65-3.21-17.2-4.54-25.8-2.29-14.85-5.19-29.67-6.34-44.62C141.9,517,153.28,494.3,174,475.85c15.55-13.85,33.69-23.74,51.66-33.9,10.7-6.06,21.66-11.69,32.1-18.17,8.17-5.06,17.17-6.12,26.21-7.24a157.34,157.34,0,0,1,64.54,5.14c.75.22,1.49.52,2.24.78Z"/><path class="cls-1" d="M64.56,679.29c-2.83-12.93-5.46-24.77-8-36.62C50.45,614.43,45.73,586,44.92,557.05A141.83,141.83,0,0,1,51.58,509a20.66,20.66,0,0,1,5.1-8.12,185.69,185.69,0,0,1,60.71-39.71A92.37,92.37,0,0,1,135.88,456c7.92-1.37,10.47,2.05,7,9.2-4.25,8.86-9.29,17.35-13.56,26.2-9,18.76-12.75,38.81-14,59.47-.9,15.42-2,30.84-7.12,45.63-4,11.74-9.93,22.14-20.15,29.71a102.65,102.65,0,0,0-11.26,9.54,7.35,7.35,0,0,0-1.92,5.57c1.17,7.24,3.07,14.37,4.24,21.61a7.33,7.33,0,0,1-2,5.51C73.5,672.06,69.37,675.22,64.56,679.29Zm4-71.9c5.54-5,10.32-9.4,15.22-13.66a32.82,32.82,0,0,0,9.95-16.16c6.08-21.15,6.14-42.88,5.66-64.59-.18-7.82-4.8-9.66-11.25-5.1a27.55,27.55,0,0,0-2.88,2.29c-5.65,5.16-11.16,10.46-16.94,15.47A15.06,15.06,0,0,0,62.91,537c-1,19,.81,37.87,3.36,56.67C66.85,597.94,67.69,602.16,68.57,607.39Z"/><path class="cls-1" d="M623.83,692.22c-2.83-1.09-5.11-1.91-7.36-2.83-16.19-6.66-30.38-16.71-44.72-26.49-1.09-.74-1.84-3-1.69-4.39,1.8-17.11,4.15-34.17,5.64-51.31,1.71-19.54,4.12-38.9,11.08-57.37,10-26.37,27.41-47,49.9-63.49,4.8-3.54,9.84-6.75,14.76-10.13,2-1.37,3.79-1.65,5.92,0,4,3.08,8.11,5.93,12.65,9.21-5.73,3.87-11,7.44-16.22,11C621,518.46,602.28,549.23,597,588.25c-1.3,9.61-2.18,19.28-3.39,28.91-.41,3.27.74,5,3.88,6.1,10.81,3.87,21.51,8,32.29,12,2.3.85,3.73,1.75,3.24,4.67-2.69,15.9-5.21,31.83-7.82,47.74A44.28,44.28,0,0,1,623.83,692.22Z"/><path class="cls-1" d="M242.71,574c1.5-10.06,2.34-19.57,4.4-28.81,5.07-22.81,19.09-39.54,37.57-53,14.9-10.8,31.46-18.38,48.54-24.95,4-1.53,7.92-3.23,11.88-4.85l.33-1.44-24.12-10.67c4-1.73,7.63-3.4,11.34-4.91,12-4.85,23.91-9.73,36-14.37a7.87,7.87,0,0,1,5.69.23c14.26,7.22,28.37,14.73,42.59,22,4.73,2.43,9.64,4.5,14.79,6.88a10.12,10.12,0,0,1-1.68,1.71c-13.46,8.12-27,16.14-40.39,24.34-2.48,1.52-4.35,1.48-6.65-.21-5.18-3.81-10.42-7.54-15.82-11-1.39-.9-3.8-1.59-5.15-1-18.25,8-36.88,15.41-54.48,24.72C279.8,513.44,263.81,537,260,568.32c-.41,3.39-1.55,4.72-5.08,4.63S247.87,573.54,242.71,574Z"/><path d="M49.24,480.74c8.39-17.26,26.26-28.3,44.76-33.41s38-5.16,57.14-6,38.8-2.65,56.15-10.86,32.2-24.07,34.26-43.16c.92-8.5-1.75-18.56-9.62-21.91-9-3.81-19,3.29-24.14,11.58s-7.73,18.19-14.35,25.33c-7.26,7.83-18.11,11.05-28.52,13.43-17.48,4-35.66,6.62-53.34,3.55s-34.92-12.53-43.95-28c-3.48-6-5.68-12.72-9.73-18.35s-10.78-10.17-17.58-8.82C33.2,365.5,28.81,372.61,26,379.32c-2.51,6.05-4.45,12.77-2.73,19.08,1.61,5.89,6.12,10.47,9.07,15.81,7.94,14.39,3.71,32.42-2.94,47.45-2.14,4.86-4.58,10-3.57,15.25a12.15,12.15,0,0,0,21.9,4.63"/><path d="M360.45,405a94.4,94.4,0,0,0-73-11.9c-4.84,1.21-9.82,2.83-14.71,1.86-7.59-1.5-12.65-8.78-15.35-16s-3.93-15.12-7.92-21.74c-6.58-10.94-20.26-16.6-32.94-15.1s-24.09,9.42-31.41,19.88c-2.89,4.13-5.23,8.67-8.66,12.37s-8.3,6.52-13.29,5.87-9.05-4.74-10.85-9.44-1.69-9.91-1-14.9c1.25-9.13,4.47-18.27,10.83-24.94,7.41-7.79,18.17-11.37,28.66-13.74,25.09-5.68,54.38-4.89,72.83,13.06,6.22,6,10.77,13.67,17.07,19.64,18.51,17.53,47.17,17.14,72.6,15.22,4.55-.34,9.18-.72,13.41-2.44,14.31-5.82,18.44-26.14,10.58-39.44-1.77-3-4.05-5.84-4.75-9.26-1.32-6.37,3.49-12.72,9.42-15.39s12.68-2.55,19.18-2.38c5.36.14,11.21.46,15.22,4,7.16,6.37,3.93,18,.15,26.8-4.79,11.18-9.77,22.63-18.26,31.33-3.68,3.76-8,7-10.65,11.57a19.81,19.81,0,0,0,.44,20.17c7.82,12.22,28.08,14.44,31.55,28.52a8.24,8.24,0,0,1-.77,6.62c-1.31,1.91-3.65,2.81-5.87,3.45-26.88,7.81-58.45-8.69-67.38-35.22"/><path d="M590.41,443.66c-21.34-.45-40.64,12.53-61.71,15.85-18.29,2.88-36.83-1.65-54.78-6.14l-20.31-5.08c-3.6-.9-7.29-1.84-10.36-3.93C435,438.71,434,427.05,434.42,417s.94-21.26-5.87-28.59c-5.3-5.72-14.38-8.08-17.26-15.33a15.38,15.38,0,0,1-.74-7.5c1.08-8.82,8.06-16.9,16.85-18.21s18.32,5.15,19.4,14c.39,3.21-.24,6.45-.4,9.68-.52,11,4.44,21.35,9.52,31.08,3.08,5.9,6.5,12,12.19,15.48s14.32,3,17.75-2.73c2.11-3.51,1.74-8,.28-11.87s-3.91-7.18-5.92-10.75a53.12,53.12,0,0,1-5.47-14.07c-.89-3.83-1.21-8.28,1.35-11.26s6.91-3.35,10.66-2.52c12.28,2.74,19.62,16.11,20.31,28.68.44,8-.8,17.21,4.67,23.12,4.82,5.2,13.18,5.49,19.84,3s12.25-7.07,18.31-10.76a72.64,72.64,0,0,1,33.33-10.43c5.22-.32,10.72,0,15.23,2.66,8,4.7,10.49,15,11.1,24.3a13.36,13.36,0,0,1-.59,6c-1.18,2.79-4,4.49-6.63,5.91a128.37,128.37,0,0,1-19.16,8.28"/><path d="M118.84,348.11c3.55,3.58,2.81,10-.66,13.65s-8.85,4.92-13.89,4.72c-3.05-.12-6.21-.76-8.6-2.66-5.41-4.29-4.66-12.69-2.52-19.26s5.15-13.68,2.6-20.1c-1.72-4.36-5.67-7.36-8.69-11-4.92-5.85-7.18-15.12-2.25-21,3.85-4.57,10.54-5.38,16.5-5.08a13.2,13.2,0,0,1,5.64,1.2c3.17,1.7,4.62,5.5,5,9.08.94,8.69-2.73,18.11,1.25,25.89,3.08,6,10.14,9.51,12.36,15.9,2.46,7.13-2,14.62-6.33,20.82"/><path d="M687.35,431.18l-20.42-17.27c-2.44-2.07-4.95-4.18-8-5.28-5.92-2.18-12.6-.05-18,3.2-8.6,5.15-15.87,14.38-14.72,24.35.87,7.63,6.51,14.75,4.88,22.26a11.83,11.83,0,0,0-.64,4.17c.44,3,4.11,4.43,7.08,3.92s5.54-2.29,8.35-3.36c9.66-3.7,20.26,1.29,29.39,6.17,2.7,1.45,5.5,3,7.34,5.43a16.2,16.2,0,0,1,2.69,7.22,34.49,34.49,0,0,1-10.46,30.14c-7.31,6.76-17.29,10-24.63,16.78a34.58,34.58,0,0,0-10.8,20.59c-.23,1.74-.29,3.66.75,5.08a6.81,6.81,0,0,0,3.11,2c15.32,6.09,34.7-1.37,42-16.15,4.64-9.42,4.82-21,11.41-29.15,4.9-6.08,12.7-9.25,20.46-10.16s15.59.2,23.33,1.3c19.28,2.75,40,5.23,57.3-3.79,2.84-1.48,5.61-3.34,7.32-6.05,4.65-7.39-.58-17.21-7.25-22.85-8.79-7.43-19.84-11.47-30-16.95s-20-13.28-23.08-24.35c-3.42-12.26,2.26-25,4.07-37.58a8.68,8.68,0,0,0-.37-5.13,8.34,8.34,0,0,0-3.39-3.16c-11.51-6.85-28.56-5.33-35.87,5.88-4.36,6.7-4.58,15.19-7.11,22.76a38.4,38.4,0,0,1-16.56,20.57"/><path d="M328.2,275.15c-3.52,0-7.14,0-10.41,1.27s-6.16,4.18-6.36,7.69c-.18,3.21,1.88,6.15,4.34,8.22,4.63,3.93,11.24,5.66,17,3.82s10.34-7.52,10.2-13.59-5.47-11.76-11.55-11.68"/><path d="M193.82,287.46a67.32,67.32,0,0,0-21.26,9.16c-4.15,2.72-8.2,6-13.09,6.86-5.31.93-10.9-1.28-14.67-5.13a12.25,12.25,0,0,1-3.37-5.73c-1.52-6.74,5.12-12.67,11.71-14.74s13.91-2.09,19.87-5.59c8.42-5,11.79-15.41,18.73-22.3a20.12,20.12,0,0,1,11.15-6c4.25-.59,8.89.8,11.61,4.12a13.75,13.75,0,0,1,2.6,5.53c2,8.27-2,17.07-8,23.05s-14,9.64-21.76,13"/><path d="M639.69,572.16l-7.58,4.22c-6,3.36-12.51,7.23-14.93,13.69a10.14,10.14,0,0,0-.64,5.27c.51,3,2.78,5.46,5.41,7,4.84,2.85,11,3,16.29,1.14,3.07-1.07,6.15-3,7.11-6.13a12.55,12.55,0,0,0,.37-4c-.1-3.88-.45-7.84-2-11.41-1.61-3.75-4.57-7.39-3.78-11.4"/><path d="M47.83,292.09c7.58,2.75,6.92,15.16.08,19.44s-16,2.08-22.8-2.23a26,26,0,0,1-8.46-8.09c-3.19-5.22-3.6-11.69-3.06-17.79,1.32-14.87,7.66-28.82,10.36-43.5,4-21.76-.14-44.17-5.56-65.63-1.16-4.58-2.39-9.34-1.53-14s4.47-9.18,9.2-9.4c2.92-.14,5.71,1.37,7.88,3.34,5.73,5.19,7.85,13.38,7.77,21.1s-2,15.29-3.18,22.93a107.89,107.89,0,0,0,4.38,49.84c2.26,6.73,5.18,13.25,6.85,20.15,2.67,11,2,22.55,1.4,33.88"/><path d="M115,160.94a51.52,51.52,0,0,1-17.85-5.35,10.48,10.48,0,0,1-4.14-3.2c-1.43-2.13-1.31-4.91-1-7.47a84.1,84.1,0,0,1,3.34-15.67c.9-2.85,2.2-5.93,4.93-7.15,3.31-1.47,7.06.44,10.17,2.31,4.88,2.93,10.2,6.44,11.49,12a18.48,18.48,0,0,1,.24,5.41A71.66,71.66,0,0,1,117.49,163"/><path d="M37.8,44.88c-3.82-.44-7-3.22-9-6.53s-2.86-7.11-3.71-10.86c-1.11-4.86-1.81-10.89,2.11-14,2.33-1.84,5.56-1.91,8.54-1.9,1.53,0,3.2.06,4.37,1a6,6,0,0,1,1.65,3C45.36,27.79,40.38,40.59,38,53"/><path d="M898.36,431.41A132.84,132.84,0,0,0,867.64,448c-5.77,4.16-11.4,8.9-18.26,10.79-4.91,1.36-10.11,1.15-15.19.8-7.6-.51-15.57-1.42-21.78-5.83s-9.8-13.43-5.78-19.9,12.57-7.32,20-8.51c25.5-4.11,48-18.57,69.06-33.57,4.9-3.48,10.74-7.21,16.49-5.45,4.59,1.41,7.53,6,8.66,10.69s.85,9.54,1.27,14.32a49.85,49.85,0,0,0,11,27.12c4.77,5.82,11.17,11.18,12.06,18.65a14.21,14.21,0,0,1-21.47,13.85c-2.95-1.79-5.14-4.57-7.46-7.12A69.19,69.19,0,0,0,880,442.89"/><path d="M86.46,188.85a73.42,73.42,0,0,0-6,38.68c.85,7.2,3.11,14.8,8.86,19.21,7,5.37,17.94,5.09,23.05,12.29,3.27,4.6,4,12,9.42,13.45,3.69,1,7.42-1.59,9.82-4.58s4.21-6.56,7.33-8.77c5.31-3.77,12.49-2.45,19-2.4a8.44,8.44,0,0,0,4-.67c2.46-1.29,3.26-4.7,2.23-7.28a10.64,10.64,0,0,0-6-5.48c-10-4.22-22.35.78-31.93-4.31-6.59-3.5-10.06-10.92-12.1-18.1s-3.15-14.77-7-21.18-11.47-11.38-18.6-9.19"/><path d="M74,131.18a13.29,13.29,0,0,0-1.26,11.08c1,3,3.17,5.82,2.86,9-.48,4.88-6.75,7.25-11.46,5.89s-8.3-5.06-12.18-8a47.58,47.58,0,0,0-22.62-9.44,6.73,6.73,0,0,1-3.64-1.17,5.2,5.2,0,0,1-1.27-1.94c-2.52-5.91-.9-12.81,2-18.56s6.9-10.87,9.56-16.72,3.8-12.93.69-18.55c3-3.4,9-1.4,11.24,2.53S49.58,94,49.23,98.46c-.52,6.67.09,14.74,5.94,18,3.9,2.15,9,1.33,12.7,3.79,5.55,3.68,4.73,11.93,3.27,18.43"/><path d="M150.34,706.47A183.58,183.58,0,0,1,198,627.41c17.45-17,41.65-31.1,65.25-25,22.81,5.88,37.05,28.46,45.64,50.39,5.86,15,11,31.54,23.91,41,8.26,6.06,18.64,8.33,28.74,10a365.16,365.16,0,0,0,92.57,3.58c-40.51,38.38-100.84,47.92-156.51,44.05s-110.09-19.17-165.77-22.8"/><path d="M891.49,666a79.23,79.23,0,0,1,11-38.58c2.66-4.48,5.79-8.74,7.63-13.61,4.08-10.82,1.29-22.85-.79-34.24-3.51-19.29-4-41.53,9.41-55.87,8.63-9.24,21.31-13.26,32.2-19.68a79.86,79.86,0,0,0,31.27-34.1c2.92-6.11,5.1-12.65,9-18.17s10.19-10,17-9.52c9.72.73,16,11.92,14.61,21.56s-8.42,17.53-16,23.66-16.1,11.21-22.62,18.46c-13.57,15.1-16,39.16-5.62,56.63,4.79,8.1,11.91,14.71,16.22,23.09,9.29,18.06,3.71,40-3.41,59-1.7,4.55-3.54,9.16-6.66,12.88-3.59,4.27-8.62,7-13.61,9.55a258.57,258.57,0,0,1-87.34,26"/></svg>