<svg id="Layer_1" data-name="Layer 1" xmlns="http://www.w3.org/2000/svg" viewBox="0 0 283 283"><defs><style>.cls-1{fill:#f2f2f2;}.cls-2{fill:#fff;}</style></defs><title>Artboard 4</title><rect class="cls-1" y="0.16" width="283" height="283"/><path class="cls-2" d="M129.26,177.29H115V106h28.52a27.81,27.81,0,0,1,7.56,1,28.36,28.36,0,0,1,6.78,2.88,29.09,29.09,0,0,1,5.77,4.48,28.52,28.52,0,0,1,4.47,5.79A29,29,0,0,1,171,127a28.44,28.44,0,0,1-1.22,18.61,28.63,28.63,0,0,1-15.18,15.19A27.67,27.67,0,0,1,143.52,163H129.26Zm0-57v28.53h14.26A13.66,13.66,0,0,0,149,147.7a14.29,14.29,0,0,0,7.58-7.6,14.26,14.26,0,0,0,0-11.08,14.3,14.3,0,0,0-3.06-4.55,14.56,14.56,0,0,0-4.52-3.06,13.82,13.82,0,0,0-5.52-1.12Z"/></svg>